<svg width="32" height="24" viewBox="0 0 32 24" fill="none" xmlns="http://www.w3.org/2000/svg">
<g id="Saudi Arabia (SA)">
<g clip-path="url(#clip0_2266_758)">
<g id="Clip path group">
<mask id="mask0_2266_758" style="mask-type:luminance" maskUnits="userSpaceOnUse" x="0" y="0" width="32" height="24">
<g id="a">
<path id="Vector" d="M0.00180054 0H31.9987V24H0.00180054V0Z" fill="white"/>
</g>
</mask>
<g mask="url(#mask0_2266_758)">
<g id="Group">
<path id="Vector_2" fill-rule="evenodd" clip-rule="evenodd" d="M-2 0H34V24H-2V0Z" fill="#165D31"/>
<path id="Vector_3" fill-rule="evenodd" clip-rule="evenodd" d="M7.0703 6.80155C7.0328 7.36405 6.97655 8.34843 7.45936 8.45155C8.03593 8.5078 7.71718 7.47655 7.92811 7.28905C7.96561 7.1953 8.03593 7.1953 8.04061 7.31249V8.18905C8.04061 8.4703 8.22811 8.55468 8.36874 8.61093C8.51874 8.60155 8.62186 8.61093 8.67811 8.75155L8.75311 10.2656C8.75311 10.2656 9.09999 10.3687 9.11874 9.41718C9.1328 8.85468 9.00624 8.39062 9.08124 8.2828C9.08124 8.17499 9.22186 8.1703 9.31561 8.22187C9.46561 8.32499 9.53124 8.45624 9.76561 8.40937C10.1219 8.30624 10.3375 8.1328 10.3422 7.86093C10.3351 7.59375 10.2795 7.33008 10.1781 7.0828C10.1969 7.03593 10.1125 6.90937 10.1312 6.86249C10.1922 6.96562 10.2906 6.95624 10.3094 6.86249C10.2484 6.66562 10.1547 6.47343 10.0047 6.39374C9.87811 6.28124 9.69061 6.29999 9.62968 6.53437C9.59218 6.80155 9.72343 7.11562 9.91561 7.37812C9.9578 7.47655 10.0141 7.6453 9.99061 7.7953C9.88749 7.85624 9.78436 7.82812 9.6953 7.73905C9.6953 7.73905 9.41405 7.52812 9.41405 7.47655C9.48905 6.99843 9.42811 6.94218 9.38593 6.80624C9.3578 6.62343 9.26874 6.56249 9.19843 6.44062C9.12811 6.36562 9.03436 6.36562 8.98749 6.44062C8.86093 6.65624 8.92186 7.1203 9.01093 7.33124C9.07655 7.52343 9.17499 7.6453 9.12811 7.6453C9.09061 7.75312 9.01093 7.72499 8.94999 7.59843C8.88139 7.33208 8.84829 7.05783 8.85155 6.7828C8.82811 6.56718 8.79999 6.1078 8.65468 5.98593C8.5703 5.87343 8.44374 5.92968 8.39686 6.0328C8.38449 6.24221 8.38919 6.45228 8.41093 6.66093C8.50468 7.0078 8.53749 7.31718 8.58436 7.66874C8.59843 8.14218 8.31249 7.87499 8.32655 7.63593C8.38805 7.33539 8.38325 7.02505 8.31249 6.72655C8.26561 6.60468 8.21405 6.57655 8.09686 6.5953C8.0078 6.5953 7.77811 6.84374 7.71249 7.26562C7.71249 7.26562 7.65624 7.48124 7.6328 7.67343C7.59999 7.88905 7.45936 8.04843 7.35624 7.6453C7.27186 7.34999 7.21561 6.6328 7.07499 6.80155H7.0703Z" fill="white"/>
<path id="Vector_4" fill-rule="evenodd" clip-rule="evenodd" d="M8.64062 9.10314L7.14062 9.82501C7.15469 9.48282 7.84844 8.86876 8.32656 8.86407C8.63125 8.86876 8.55625 8.98126 8.63594 9.10314H8.64062Z" fill="white"/>
<path id="Vector_5" fill-rule="evenodd" clip-rule="evenodd" d="M8.37343 9.57187C7.58593 11.6109 10.225 11.8969 10.5203 9.65625C10.5484 9.5625 10.6609 9.47343 10.6797 9.62343C10.6187 11.6531 8.63593 11.7891 8.29843 11.1516C8.21903 10.9322 8.17935 10.7005 8.18124 10.4672C8.13436 10.0687 7.92343 10.2234 7.89061 10.6172C7.8578 10.8375 7.86718 10.8984 7.86718 11.1094C7.9703 12.7125 10.525 12.0234 10.9422 10.7016C11.1625 9.97031 10.9047 9.43125 11.0219 9.43125C11.275 9.70312 11.6312 9.46875 11.7109 9.375C11.7437 9.32812 11.8281 9.29531 11.8844 9.35625C12.0812 9.49687 12.4281 9.43125 12.5031 9.18281C12.5453 8.93437 12.5781 8.68125 12.5875 8.42343C12.4234 8.47031 12.3062 8.50312 12.2922 8.57343L12.2594 8.78906C12.2453 8.85937 12.1094 8.85937 12.1 8.77031C12.0391 8.48906 11.7859 8.45625 11.6312 8.8875C11.5328 8.97187 11.3453 8.99062 11.3266 8.86406C11.35 8.57343 11.2328 8.53593 10.9984 8.67187L10.7734 6.975C10.8672 6.975 10.9609 7.04531 11.05 6.93281C10.9562 6.62812 10.7453 6.00937 10.6281 5.9625C10.5766 5.89687 10.5297 5.93906 10.4547 5.95781C10.3328 5.99531 10.2203 6.09843 10.2578 6.30468C10.3984 7.18593 10.4922 7.85625 10.6375 8.74218C10.6609 8.84062 10.5766 8.97656 10.4641 8.9625C10.2766 8.83593 10.2297 8.57812 9.90155 8.5875C9.66718 8.5875 9.40468 8.84531 9.37186 9.08906C9.32968 9.28593 9.31561 9.49687 9.37186 9.66562C9.53593 9.8625 9.7328 9.84375 9.90624 9.80156C10.0469 9.74062 10.1641 9.6 10.2156 9.63281C10.2484 9.675 10.2203 10.1437 9.5453 10.5C9.13749 10.6875 8.80936 10.725 8.63593 10.3922C8.52811 10.1812 8.6453 9.38906 8.37343 9.57187Z" fill="white"/>
<path id="Vector_6" fill-rule="evenodd" clip-rule="evenodd" d="M11.7344 7.5C11.8891 7.44375 12.6391 6.58125 12.6391 6.58125L12.5266 6.4875C12.4844 6.45468 12.4891 6.41718 12.5266 6.38437C12.7141 6.27187 12.6531 6.0375 12.5594 5.925C12.4957 5.89397 12.4257 5.87824 12.3549 5.87905C12.2841 5.87987 12.2145 5.8972 12.1516 5.92968C12.0203 6.05625 11.9922 6.25781 12.0953 6.37968C12.1937 6.42656 12.2922 6.52968 12.2266 6.58593C11.9172 6.91406 11.0781 7.48125 11.1766 7.5C11.1953 7.52812 11.7156 7.52812 11.7297 7.5H11.7344ZM7.1875 10.5469C6.90625 10.9969 6.88281 11.6672 7.0375 11.8687C7.12188 11.9625 7.25781 12.0047 7.35625 11.9719C7.53438 11.8969 7.61406 11.5359 7.57188 11.4094C7.51094 11.3156 7.46406 11.3016 7.40313 11.3766C7.28125 11.6297 7.22969 11.4562 7.21563 11.3156C7.20219 11.0775 7.21476 10.8386 7.25313 10.6031C7.28594 10.4062 7.25313 10.4625 7.1875 10.5469ZM19.2391 9.82968C18.9672 9.23906 18.5875 8.65781 18.4703 8.4375C18.105 7.86002 17.7172 7.29708 17.3078 6.75C17.0172 6.40312 17.7859 6.89531 17.2141 6.20156L16.7969 5.85C16.7031 5.78437 16.4781 5.6625 16.4406 5.85937C16.4219 6.0375 16.4312 6.13125 16.4594 6.27656C16.4828 6.37031 16.6234 6.53437 16.6937 6.62812C17.6547 7.90099 18.4988 9.25807 19.2156 10.6828C19.3375 10.6219 19.3094 9.92812 19.2391 9.82968Z" fill="white"/>
<path id="Vector_7" fill-rule="evenodd" clip-rule="evenodd" d="M18.0437 11.7891C17.9875 11.85 18.175 12.1078 18.4187 12.1078C18.8219 12.0609 19.1781 11.8359 19.5062 11.2359C19.6396 11.0363 19.7246 10.8085 19.7547 10.5703C19.7944 9.43238 19.7031 8.29366 19.4828 7.17656C19.4687 7.08281 19.4828 6.97031 19.4922 6.94219C19.5203 6.90937 19.6094 6.94219 19.6562 6.8625C19.7265 6.79219 19.4687 6.20625 19.3281 5.98594C19.2812 5.88281 19.2578 5.81719 19.1734 5.99531C19.0716 6.19186 19.0231 6.41167 19.0328 6.63281C19.225 7.96875 19.2859 9.13594 19.4078 10.4719C19.4219 10.6031 19.4031 10.7906 19.314 10.8656C18.9603 11.2594 18.5275 11.5741 18.0437 11.7891ZM23.5047 11.7844C23.214 11.9531 23.214 12.1453 23.4484 12.15C23.8515 12.1031 24.3297 12.0703 24.6578 11.5734C24.7737 11.3394 24.8407 11.0842 24.8547 10.8234C24.9137 9.70303 24.8397 8.57957 24.6344 7.47656C24.625 7.38281 24.5828 7.1625 24.5969 7.13437C24.625 7.06875 24.7562 7.13906 24.8031 7.06406C24.8687 6.99375 24.4609 6.46875 24.3156 6.24375C24.2687 6.14062 24.25 6.075 24.1609 6.25312C24.0665 6.45148 24.037 6.67454 24.0765 6.89062C24.2922 8.34375 24.4515 9.43125 24.4844 10.7156C24.4656 10.8375 24.4609 10.9031 24.4047 11.0578C24.2781 11.2172 24.1375 11.4234 24.0062 11.5219C23.875 11.6156 23.5937 11.7094 23.5047 11.7844Z" fill="white"/>
<path id="Vector_8" fill-rule="evenodd" clip-rule="evenodd" d="M23.7203 10.4859C23.7203 10.1438 23.725 9.85313 23.7156 9.59531C23.7126 9.37697 23.6647 9.16158 23.575 8.9625C23.4906 8.77031 23.5422 8.61563 23.5 8.40938C23.4625 8.20313 23.4719 7.89375 23.4156 7.65469C23.3969 7.56094 23.35 7.25625 23.3641 7.22344C23.3875 7.15781 23.4766 7.22344 23.5234 7.14844C23.5891 7.07813 23.2891 6.30469 23.1391 6.08438C23.0875 5.98594 22.9844 6.01875 22.8672 6.17813C22.75 6.28594 22.7922 6.525 22.8391 6.75469C23.125 8.26875 23.3453 9.64219 23.2984 11.0813C23.2797 11.2031 23.7203 10.7156 23.7203 10.4859ZM21.5781 8.61094C21.3953 8.60156 21.0156 8.25 20.9031 8.04844C20.8847 7.99918 20.8769 7.94659 20.8801 7.8941C20.8833 7.84161 20.8976 7.79038 20.9219 7.74375C20.9922 7.69688 21.0953 7.65 21.175 7.69688C21.175 7.69688 21.2547 7.80938 21.2406 7.82344C21.3344 7.87031 21.3812 7.84688 21.3906 7.80469C21.3953 7.73438 21.3625 7.69219 21.3625 7.61719C21.4047 7.40156 21.6437 7.36875 21.7375 7.50469C21.8031 7.58906 21.8312 7.7625 21.8359 7.87969C21.8359 7.94063 21.7422 7.87031 21.6812 7.87969C21.6297 7.89844 21.6156 7.96406 21.6109 8.02031C21.6016 8.175 21.5828 8.42344 21.5781 8.60625V8.61094ZM18.2125 10.8609C18.2594 10.4016 18.1937 9.58125 18.1891 9.30938C18.164 8.61017 18.1061 7.91253 18.0156 7.21875C17.9594 6.825 18.175 7.26094 18.1469 7.03125C18.0766 6.64219 17.8609 6.375 17.6031 6.02344C17.5234 5.90625 17.5234 5.88281 17.3969 6.05156C17.2562 6.36563 17.3781 6.58594 17.4156 6.83438C17.5984 7.64063 17.7062 8.38125 17.7578 9.11719C17.8118 9.88168 17.818 10.6488 17.7766 11.4141C17.9172 11.4188 18.1328 11.1938 18.2125 10.8609Z" fill="white"/>
<path id="Vector_9" fill-rule="evenodd" clip-rule="evenodd" d="M24.3437 10.125C24.0203 9.58126 23.5375 9.00001 23.4062 8.7797C22.9716 8.17271 22.515 7.58169 22.0375 7.00783C21.6391 6.58595 22.225 6.93751 21.9625 6.60939C21.7422 6.37033 21.6812 6.29064 21.4891 6.14533C21.3953 6.08439 21.3391 5.9672 21.3016 6.16876C21.2866 6.34335 21.2835 6.51875 21.2922 6.69376C21.2922 6.77345 21.3766 6.92814 21.4516 7.02189C22.4219 8.2172 23.4859 9.43595 24.3391 10.9688C24.4609 10.9078 24.4187 10.2188 24.3391 10.125H24.3437Z" fill="white"/>
<path id="Vector_10" fill-rule="evenodd" clip-rule="evenodd" d="M9.74689 9.12656C9.72345 9.16875 9.67189 9.22031 9.69064 9.27188C9.72345 9.31875 9.75626 9.33281 9.81251 9.33281C9.86408 9.33281 9.93908 9.34688 9.95314 9.31875C9.98126 9.28594 10 9.225 9.98126 9.16406C9.92501 9.02344 9.77501 9.07969 9.74689 9.12656Z" fill="#165D31"/>
<path id="Vector_11" fill-rule="evenodd" clip-rule="evenodd" d="M20.6031 16.9922C21.0344 17.011 21.3156 17.0156 21.6953 17.0578L22.1453 17.011C22.6422 16.9641 22.6609 17.7188 22.6609 17.7188C22.6609 18.1641 22.4875 18.1875 22.2672 18.2344C22.1406 18.2531 22.0797 18.1594 22.0094 18.0656C21.9033 18.0996 21.7904 18.1061 21.6812 18.0844C21.4984 18.075 21.3203 18.075 21.1422 18.061C20.9547 18.0469 20.8515 18.0844 20.6594 18.0656C20.6219 18.1266 20.5656 18.211 20.4531 18.1875C20.3594 18.1735 20.2422 17.9063 20.275 17.6953C20.3453 17.5453 20.3219 17.5969 20.3219 17.5313C18.5594 17.4844 16.7828 17.4047 15.0578 17.4281C13.7078 17.4328 12.3765 17.4891 11.0406 17.5453C10.3281 17.536 9.78436 17.4235 9.40936 16.875C9.44686 16.875 11.2281 16.9735 11.7484 16.9406C12.7094 16.9313 13.5906 16.8516 14.5703 16.8235C16.5015 16.8563 18.4187 16.8563 20.35 16.9922C20.1625 16.8656 20.1625 16.5703 20.4437 16.4953C20.4672 16.4766 20.4812 16.6406 20.5234 16.636C20.7531 16.6219 20.65 16.9313 20.6031 16.9922ZM12.8406 6.3422C12.55 7.17658 13.0094 8.09533 13.3281 8.00626C13.5625 8.10001 13.7031 7.65939 13.7969 7.18126C13.8672 7.04533 13.914 7.03126 13.9469 7.10158C13.9375 7.73908 13.9937 7.88439 14.1578 8.07658C14.5234 8.35783 14.8281 8.11408 14.8515 8.09064L15.1328 7.8047C15.1984 7.73439 15.2828 7.73439 15.3719 7.79064C15.4609 7.87033 15.4469 8.00626 15.6344 8.10001C15.7937 8.16564 16.1265 8.11876 16.2062 7.98283C16.3094 7.80001 16.3375 7.73908 16.3844 7.67345C16.4594 7.57501 16.5859 7.6172 16.5859 7.65001C16.5719 7.70626 16.4969 7.75783 16.5484 7.86095C16.6422 7.92658 16.6609 7.88439 16.7125 7.87033C16.9 7.77658 17.0406 7.37345 17.0406 7.37345C17.0453 7.22345 16.9609 7.23283 16.9047 7.27033L16.7594 7.36876C16.6656 7.38283 16.4922 7.44376 16.4031 7.30783C16.314 7.14845 16.314 6.91876 16.2484 6.7547C16.2484 6.74533 16.1265 6.49689 16.239 6.48283C16.2953 6.4922 16.4125 6.52501 16.4312 6.42658C16.4875 6.32814 16.3094 6.05158 16.1828 5.91095C16.075 5.79376 15.925 5.7797 15.7797 5.90158C15.6765 5.99533 15.6906 6.09845 15.6719 6.19689C15.6541 6.26743 15.6533 6.34119 15.6696 6.41209C15.6859 6.48299 15.7188 6.549 15.7656 6.6047C15.8687 6.80158 16.0515 7.05939 15.9906 7.42501C15.9906 7.42501 15.8828 7.59376 15.6953 7.57033C15.6156 7.55626 15.489 7.52345 15.4234 7.0172C15.3719 6.6422 15.4328 6.10783 15.2734 5.85939C15.2125 5.7047 15.1703 5.55939 15.0297 5.8172C14.9922 5.92033 14.8281 6.07501 14.9453 6.38908C15.0562 6.67209 15.0886 6.9798 15.039 7.2797C14.9687 7.38283 14.9547 7.41564 14.8656 7.51408C14.7437 7.6547 14.6078 7.6172 14.5047 7.56564C14.4109 7.5047 14.3359 7.47189 14.289 7.26095C14.2984 6.93283 14.3172 6.39376 14.2562 6.28126C14.1672 6.10314 14.0219 6.16876 13.9609 6.22501C13.6821 6.53478 13.4954 6.91632 13.4219 7.32658C13.3375 7.59845 13.2484 7.51876 13.1875 7.41095C13.0375 7.27033 13.0234 6.15939 12.8406 6.3422Z" fill="white"/>
<path id="Vector_12" fill-rule="evenodd" clip-rule="evenodd" d="M13.7219 8.16095C13.8578 8.0672 13.7969 8.00158 13.9937 8.19845C14.2479 8.64807 14.3954 9.15002 14.425 9.66564C14.4156 9.78751 14.5 9.86251 14.5422 9.83439C14.5609 9.55314 15.25 9.15939 15.8828 9.10314C15.9766 9.0797 15.9297 8.89689 15.9437 8.80314C15.9062 8.45158 16.1406 8.13283 16.4688 8.10939C16.9187 8.17501 17.0687 8.41408 17.0781 8.77501C17.0266 9.47814 16.2953 9.59533 15.8875 9.65158C15.8266 9.67501 15.7984 9.70314 15.8875 9.73595L17.6031 9.74533L17.6922 9.7922C17.7016 9.83908 17.6641 9.80158 17.5984 9.91408C17.5041 10.0799 17.445 10.2634 17.425 10.4531C16.9141 10.6219 16.3844 10.6875 15.85 10.7578C15.6625 10.8516 15.5687 10.9781 15.6062 11.1188C15.6719 11.2735 16.0844 11.4328 16.0844 11.4375C16.1641 11.4844 16.2531 11.6016 16.0609 11.8406C15.2266 11.8031 14.575 11.4469 14.35 10.9453C14.2844 10.8938 14.2094 10.9453 14.1625 11.011C13.8344 11.4328 13.5156 11.8078 12.9578 12.0141C12.6297 12.0985 12.2875 11.9625 12.1281 11.7469C12.0203 11.6203 12.025 11.4844 11.9875 11.4563C11.8047 11.536 10.2578 12.1922 10.4547 11.8828C10.8297 11.4844 11.4859 11.1844 12.0578 10.7906C12.1 10.6547 12.175 10.2047 12.4 10.0594C12.4141 10.0594 12.3672 10.3219 12.3719 10.4344C12.3719 10.5281 12.3625 10.561 12.3812 10.5375C12.4234 10.5141 13.1172 9.96564 13.1781 9.79689C13.2438 9.70314 13.1922 9.45939 13.1922 9.45001C13.0609 9.11251 12.8781 9.08439 12.8125 8.91564C12.7516 8.69533 12.7797 8.4422 12.9062 8.3672C13.0187 8.26876 13.15 8.27814 13.2766 8.39064C13.4172 8.5172 13.5391 8.76564 13.5766 8.94845C13.5531 9.01876 13.3891 8.90158 13.3422 8.93439C13.4324 9.03807 13.4924 9.16455 13.5156 9.30001C13.6094 9.68439 13.5812 9.83439 13.4875 10.0828C13.1781 10.7344 12.7844 10.9266 12.4375 11.1703C12.4281 11.1703 12.4234 11.3344 12.55 11.4235C12.5969 11.4703 12.7797 11.4938 12.9906 11.4235C13.4413 11.1732 13.8057 10.7924 14.0359 10.3313C14.0758 9.98034 14.0373 9.62494 13.9234 9.29064C13.7875 8.97658 13.6281 8.53126 13.6281 8.52189C13.6234 8.32501 13.6375 8.25939 13.7219 8.16095ZM9.23125 6.35158C9.42812 6.44533 9.80312 6.40314 9.78437 6.08439L9.775 5.93908C9.7375 5.84533 9.625 5.86876 9.60156 5.96251C9.59219 5.99533 9.61562 6.04689 9.5875 6.06095C9.56875 6.0797 9.50781 6.07033 9.50781 5.98126C9.50781 5.95314 9.48906 5.92501 9.475 5.90626C9.46563 5.89689 9.45625 5.89689 9.43281 5.89689C9.40469 5.89689 9.40469 5.90158 9.39062 5.92501C9.38594 5.94845 9.37656 5.97189 9.37656 6.00001C9.37656 6.03283 9.35781 6.0422 9.33906 6.04689C9.31094 6.04689 9.31562 6.04689 9.29219 6.03751C9.28281 6.02345 9.26875 6.01876 9.26875 5.99064L9.25469 5.91564C9.24531 5.90158 9.22656 5.8922 9.20781 5.88751C9.1 5.88751 9.09063 6.01408 9.1 6.06095C9.09063 6.07033 9.08594 6.29064 9.23125 6.35158Z" fill="white"/>
<path id="Vector_13" fill-rule="evenodd" clip-rule="evenodd" d="M15.0203 8.79843C15.2172 8.89218 15.6906 8.84062 15.5734 8.53593L15.5641 8.38593C15.5219 8.29218 15.4141 8.31562 15.3906 8.41405C15.3813 8.44218 15.4047 8.49374 15.3719 8.5078C15.3578 8.52655 15.2922 8.51718 15.2969 8.4328C15.2969 8.40468 15.2781 8.37187 15.2641 8.35312C15.25 8.34843 15.2453 8.34374 15.2172 8.34374C15.1938 8.34374 15.1938 8.35312 15.1797 8.37655C15.1703 8.39999 15.1656 8.42343 15.1656 8.45155C15.1609 8.47968 15.1469 8.48905 15.1234 8.49843C15.1 8.49843 15.1047 8.49843 15.0859 8.48437C15.0719 8.4703 15.0578 8.46562 15.0578 8.44218L15.0438 8.36718C15.0344 8.35312 15.0156 8.34374 14.9969 8.33905C14.8891 8.33905 14.8797 8.46093 14.8844 8.5078C14.8797 8.51718 14.875 8.74218 15.025 8.79843H15.0203ZM18.3953 7.78593C18.5922 7.87968 18.9625 7.83749 18.9484 7.52343L18.9391 7.37343C18.8969 7.27968 18.7891 7.30312 18.7656 7.39687C18.7563 7.42968 18.7797 7.48124 18.7469 7.49999C18.7328 7.51405 18.6672 7.50468 18.6719 7.41562C18.6719 7.38749 18.6531 7.35937 18.6391 7.34062C18.625 7.33124 18.6203 7.33124 18.5922 7.33124C18.5688 7.33124 18.5688 7.34062 18.5547 7.36405L18.5406 7.43437C18.5359 7.46718 18.5219 7.48124 18.4984 7.48124C18.475 7.48124 18.4797 7.48124 18.4609 7.47187C18.4469 7.4578 18.4328 7.45312 18.4328 7.42968C18.4328 7.40624 18.4281 7.36874 18.4188 7.34999C18.4094 7.33593 18.3906 7.33124 18.3719 7.32655C18.2641 7.32655 18.2547 7.44843 18.2594 7.4953C18.2547 7.50468 18.25 7.72499 18.4 7.78593H18.3953ZM20.1438 10.3312C19.8016 10.7203 19.9516 11.3625 20.0313 11.5031C20.1438 11.7281 20.2328 11.8734 20.4531 11.9859C20.6547 12.1312 20.8141 12.0422 20.8984 11.9391C21.1 11.7281 21.1047 11.1891 21.1984 11.0859C21.2641 10.8891 21.4328 10.9219 21.5125 11.0109C21.5871 11.1168 21.687 11.2022 21.8031 11.2594C21.9906 11.4234 22.2156 11.4562 22.4406 11.3062C22.5906 11.2172 22.6891 11.1094 22.7781 10.8891C22.8719 10.6266 22.825 9.4078 22.8016 8.68593L22.6047 7.67812C22.6047 7.66874 22.5813 7.19999 22.5578 7.09218C22.5578 7.0453 22.5438 7.03124 22.5906 7.03593C22.6422 7.0828 22.6469 7.0828 22.6844 7.09687C22.7313 7.10624 22.7781 7.01718 22.7453 6.94218L22.2766 6.0703C22.2391 6.0328 22.1875 5.9953 22.1266 6.07968C22.0906 6.11223 22.062 6.15204 22.0426 6.19649C22.0232 6.24094 22.0135 6.289 22.0141 6.33749C22.0281 6.54374 22.0609 6.75468 22.075 6.96093L22.2625 8.0203C22.3234 8.7703 22.3375 9.38905 22.3984 10.1437C22.3891 10.4625 22.2906 10.7391 22.1969 10.7812C22.1969 10.7812 22.0563 10.8609 21.9625 10.7719C21.8922 10.7437 21.6156 10.3078 21.6156 10.3078C21.475 10.1812 21.3813 10.2141 21.2828 10.3078C21.0016 10.5797 20.8797 11.0766 20.6875 11.4234C20.6406 11.5031 20.5 11.5641 20.35 11.4187C19.9656 10.8891 20.1906 10.1391 20.1438 10.3312ZM18.4844 5.93905C18.6625 6.00937 18.7844 6.3703 18.7469 6.54843C18.7094 6.75937 18.6156 6.99374 18.55 6.96562C18.475 6.93749 18.5969 6.74999 18.5266 6.55312C18.4891 6.42187 18.2453 6.18749 18.2734 6.12187C18.2266 5.97655 18.3766 5.91093 18.4844 5.93437V5.93905Z" fill="white"/>
<path id="Vector_14" fill-rule="evenodd" clip-rule="evenodd" d="M20.7156 10.5469C20.7484 10.1156 20.6875 9.85313 20.6781 9.60001C20.6687 9.34688 20.3922 7.41563 20.3359 7.22813C20.2656 6.8625 20.6031 7.18126 20.5656 6.96563C20.4484 6.70313 20.1625 6.31407 20.0734 6.08438C20.0172 5.99063 20.0406 5.89688 19.9187 6.06094C19.8138 6.34859 19.7769 6.65664 19.8109 6.96094C20.1016 8.475 20.3969 9.73126 20.35 11.1703C20.4906 11.1703 20.6453 10.8563 20.7156 10.5469ZM23.7344 6.54844C23.8984 6.62813 23.9922 7.07813 23.9734 7.20469C23.9406 7.43907 23.8562 7.69219 23.7953 7.65938C23.725 7.63125 23.8094 7.3125 23.7766 7.21407C23.7391 7.07344 23.5187 6.82032 23.5422 6.74532C23.4953 6.58594 23.6359 6.52032 23.7344 6.54844ZM11.7484 9.73126C11.9031 9.79219 11.9969 10.1203 11.9828 10.2141C11.9453 10.3875 11.8656 10.575 11.8047 10.5469C11.7437 10.5281 11.8187 10.2938 11.7906 10.2188C11.7766 10.0453 11.5609 9.95157 11.5656 9.87657C11.5281 9.73594 11.6594 9.71251 11.7531 9.73126H11.7484Z" fill="white"/>
<path id="Vector_15" fill-rule="evenodd" clip-rule="evenodd" d="M15.4797 10.2281C15.6766 10.2375 15.775 10.3969 15.5922 10.4625C15.4047 10.5234 15.2312 10.575 15.2266 10.8375C15.2969 11.2125 15.1328 11.0812 15.0391 11.0344C14.9266 10.95 14.6078 10.7531 14.5609 10.3312C14.5562 10.2328 14.6359 10.1437 14.7625 10.1437C14.95 10.1953 15.2312 10.2 15.4797 10.2281Z" fill="#165D31"/>
<path id="Vector_16" fill-rule="evenodd" clip-rule="evenodd" d="M7.62814 5.83125C7.85314 5.89687 7.8672 6.23437 7.85314 6.33281C7.82033 6.51094 7.74064 6.70312 7.68439 6.67969C7.61876 6.65625 7.68439 6.4125 7.65158 6.3375C7.61876 6.23437 7.42658 6.0375 7.44533 5.98125C7.40314 5.86406 7.53908 5.80781 7.62814 5.83125ZM12.1235 7.40625C11.9453 7.5 11.8797 7.78125 11.9875 7.95C12.0906 8.09062 12.25 8.03906 12.2688 8.03906C12.4422 8.05781 12.5453 7.71562 12.5453 7.71562C12.5453 7.71562 12.55 7.62187 12.3485 7.80469C12.2594 7.81875 12.2547 7.78594 12.2313 7.73906C12.2098 7.64982 12.218 7.55601 12.2547 7.47187C12.2875 7.3875 12.2219 7.35 12.1235 7.40625ZM13.436 5.7C13.3422 5.76093 13.1688 5.94375 13.1641 6.15C13.1594 6.26718 13.136 6.26718 13.211 6.3375C13.2719 6.42187 13.3235 6.41719 13.436 6.35625C13.464 6.3386 13.488 6.31532 13.5066 6.28789C13.5252 6.26045 13.5378 6.22946 13.5438 6.19687C13.5719 6.06562 13.4031 6.2625 13.3844 6.1125C13.3469 5.97187 13.4547 5.91562 13.5578 5.78437C13.5578 5.69062 13.5578 5.62968 13.4313 5.7H13.436ZM14.486 5.8875C14.4446 6.05819 14.4195 6.2324 14.411 6.40781C14.3828 6.53906 14.5516 6.59531 14.6219 6.42656C14.7344 6.12187 14.7344 5.99062 14.7438 5.86406C14.711 5.6625 14.575 5.66718 14.486 5.8875ZM21.1422 9.27656C21.161 9.25312 22.0797 8.60156 22.0797 8.60156C22.1735 8.56875 22.15 8.93906 22.1078 8.93437C21.8229 9.20897 21.4952 9.43537 21.1375 9.60469C21.0906 9.6375 21.0485 9.35625 21.1375 9.27656H21.1422ZM21.9719 9.26719C22.136 9.34687 22.2016 9.82031 22.1828 9.94687C22.1828 10.2 22.0281 10.3969 21.9625 10.3687C21.8969 10.3359 21.9719 10.0547 21.9391 9.95625C21.9016 9.81562 21.7656 9.55781 21.7891 9.48281C21.7422 9.32344 21.8735 9.23906 21.9766 9.26719H21.9719ZM16.5344 11.3016C16.6104 11.2128 16.6988 11.1355 16.7969 11.0719C16.8906 11.025 16.975 11.1094 16.9703 11.1047C16.9844 11.1984 16.9141 11.2781 16.9375 11.4C16.9563 11.4469 16.9703 11.5031 17.0594 11.4844C17.2047 11.3672 17.3406 11.3578 17.4813 11.3531C17.5985 11.3578 17.6031 11.55 17.5281 11.55C17.261 11.6062 17.1438 11.6812 16.9516 11.7516C16.8578 11.8078 16.7828 11.7375 16.7828 11.7328C16.7828 11.7281 16.7313 11.6812 16.7641 11.5594C16.7734 11.4656 16.736 11.4094 16.6516 11.4187C16.5953 11.4562 16.5391 11.475 16.511 11.4047C16.4969 11.3578 16.4922 11.3297 16.5344 11.3016ZM22.9375 11.5547C22.975 11.6016 23.0031 11.6484 22.9328 11.7328L22.7594 11.8828C22.7313 11.9297 22.7125 12.0141 22.8063 12.0375C22.975 12.0844 23.3688 11.8266 23.3688 11.8219C23.4344 11.775 23.4156 11.6812 23.4063 11.6812C23.3688 11.6391 23.2844 11.6672 23.2281 11.6578C23.2 11.6578 23.111 11.6484 23.1531 11.5641C23.1846 11.5226 23.2099 11.4768 23.2281 11.4281C23.2516 11.3719 23.2281 11.3344 23.1344 11.3016C23.036 11.2828 22.9938 11.2922 22.886 11.3016C22.8297 11.3109 22.811 11.3391 22.7969 11.4094C22.8016 11.5172 22.8672 11.5125 22.9375 11.55V11.5547Z" fill="white"/>
<path id="Vector_17" fill-rule="evenodd" clip-rule="evenodd" d="M16.5672 8.89219C16.5438 8.93906 16.4594 8.93906 16.3797 8.89219C16.3 8.84531 16.2531 8.77031 16.2813 8.72813C16.3094 8.68594 16.3891 8.68594 16.4688 8.72813C16.5484 8.77031 16.5906 8.85 16.5672 8.89219ZM12.3953 6.37969C12.3484 6.39375 12.2828 6.35157 12.2547 6.28594C12.2266 6.22032 12.2406 6.16407 12.2875 6.15C12.3344 6.13594 12.3953 6.18282 12.4281 6.24375C12.4609 6.30469 12.4422 6.37032 12.3906 6.38438L12.3953 6.37969ZM20.65 17.5781C21.0906 17.5969 21.5031 17.5781 21.9391 17.6016C22.0188 17.6719 21.9625 17.8359 21.9109 17.8266L21.5453 17.8125C21.5406 17.6719 21.1844 17.6953 21.1938 17.8172C21.0016 17.8406 20.8281 17.8125 20.6313 17.8031C20.575 17.7328 20.5844 17.6063 20.65 17.5781Z" fill="#165D31"/>
</g>
</g>
</g>
</g>
</g>
<defs>
<clipPath id="clip0_2266_758">
<rect width="32" height="24" rx="4" fill="white"/>
</clipPath>
</defs>
</svg>
