<svg width="60" height="48" viewBox="0 0 60 48" fill="none" xmlns="http://www.w3.org/2000/svg">
<g id="Component 1 &#226;&#128;&#147; 1" clip-path="url(#clip0_2266_801)">
<path id="Path 11" d="M57.8129 33.7602C56.1186 34.9346 54.2831 34.5217 53.9857 34.4495C54.0312 25.6257 54.0767 16.8022 54.1223 7.9788C54.1861 7.59049 54.5214 5.80897 56.1727 4.53209C57.8213 3.25735 59.6108 3.39054 60 3.42916C59.9544 12.1608 59.9089 20.8925 59.8633 29.6241C59.8679 29.8131 59.8861 32.3232 57.8129 33.7602Z" fill="#19458E"/>
<path id="Path 12" d="M51.8158 3.41399C51.4086 3.39046 49.491 3.32368 47.8139 4.76292C46.2535 6.10196 45.9474 7.84701 45.883 8.28853L45.7761 28.4038C45.6815 28.8361 45.4666 29.2321 45.1566 29.5454C44.7733 29.9234 44.2727 30.1567 43.7389 30.2063L41.3684 30.1822L41.5029 16.3124L35.3043 18.5625C35.6911 18.7374 36.0551 18.9594 36.3885 19.2234C36.6871 19.4607 36.9078 19.6395 37.0915 19.9564C37.2511 20.2355 37.3448 20.548 37.3654 20.8696C37.3005 23.9912 37.2357 27.1128 37.1708 30.2344L31.7894 30.1824L31.8727 19.8604C29.2886 20.9514 26.632 21.8588 23.9224 22.5761C20.4511 23.4945 16.9053 24.0977 13.3273 24.3785C13.5801 24.4912 13.8226 24.6261 14.0518 24.7818C14.4516 25.0538 14.9792 25.4128 15.2335 26.0608C15.3057 26.2456 15.3511 26.4398 15.3685 26.6376C15.3394 27.8099 15.3103 28.9821 15.2811 30.1543L10.5395 30.1746C10.521 29.0623 10.5025 27.9501 10.4839 26.8379C9.03454 28.3809 7.35745 29.6888 5.51201 30.7151C4.55932 31.2435 3.56595 31.6935 2.54156 32.0609C3.1088 32.2615 3.63065 32.5742 4.07652 32.9808C4.34061 33.2233 4.64965 33.5126 4.87663 33.9996C5.07583 34.4467 5.1631 34.9364 5.13078 35.4255C5.09381 36.5132 5.11607 39.0567 5.13789 42.5232C5.06627 43.3593 4.77716 43.9021 4.58545 44.1931C3.64858 45.6143 1.82709 45.8923 1.0166 46.0159C0.680081 46.0672 0.340334 46.094 0 46.096C0.217492 46.2594 4.05992 49.0668 7.25931 47.554C8.17952 47.1188 8.85683 46.3841 8.91461 46.3209C10.2539 44.8564 10.3996 43.0886 10.4224 42.4914C10.4641 40.2029 10.5058 37.9144 10.5475 35.6259L45.5365 35.6394C46.6897 35.6292 48.9288 35.4322 50.3947 33.8287C51.7032 32.3975 51.7868 30.5119 51.8165 29.5479C51.9431 25.422 52.0089 15.96 51.8158 3.41399ZM21.268 30.0862L19.5052 30.0609C19.5485 27.9666 19.5918 25.8724 19.6352 23.7781C20.1035 23.8426 20.5384 24.0589 20.8742 24.3944C21.21 24.73 21.4285 25.1665 21.4968 25.6383C21.4205 27.1209 21.3443 28.6035 21.268 30.0862ZM27.9066 30.1463L25.9686 30.1143L26.1115 22.1514C26.4715 22.2285 26.8107 22.3828 27.1063 22.6038C27.9489 23.2385 28.1115 24.2053 28.1448 24.4425C28.0655 26.3438 27.986 28.245 27.9066 30.1463Z" fill="#19458E"/>
<path id="Path 13" d="M42.0824 37.3848L42.0585 41.5064H44.2685C45.3718 41.3952 46.1946 40.4334 46.1508 39.3615C46.1098 38.3566 45.3174 37.5017 44.2864 37.3908L42.0824 37.3848Z" fill="#FBB03B"/>
<path id="Path 14" d="M46.53 37.3848L46.5062 41.5064H48.7159C49.8192 41.3952 50.642 40.4334 50.5982 39.3615C50.5572 38.3566 49.7648 37.5017 48.7338 37.3908L46.53 37.3848Z" fill="#FBB03B"/>
<g id="AL YUSR">
<path id="Vector" d="M39.8335 41.1554H38.3059L37.6522 39.4257H37.2186V41.1554H35.8421V36.6325H38.1844C38.7012 36.6325 39.102 36.7551 39.3867 37.0003C39.6736 37.2433 39.8171 37.5647 39.8171 37.9645C39.8171 38.2252 39.7645 38.456 39.6594 38.657C39.5543 38.8558 39.3418 39.0315 39.0221 39.1839L39.8335 41.1554ZM37.2186 38.4582H37.8066C37.9796 38.4582 38.1187 38.4218 38.2238 38.3489C38.3289 38.276 38.3815 38.1689 38.3815 38.0275C38.3815 37.7381 38.2052 37.5934 37.8526 37.5934H37.2186V38.4582Z" fill="#19458E"/>
<path id="Vector_2" d="M31.2922 39.8466L32.5701 39.6146C32.6774 39.9791 32.9534 40.1613 33.398 40.1613C33.744 40.1613 33.917 40.0686 33.917 39.883C33.917 39.7858 33.8765 39.7107 33.7955 39.6577C33.7166 39.6025 33.5743 39.5539 33.3684 39.5119C32.5822 39.3595 32.0774 39.1607 31.854 38.9155C31.6306 38.6703 31.5189 38.382 31.5189 38.0507C31.5189 37.6244 31.6788 37.2698 31.9985 36.9871C32.3205 36.7043 32.7826 36.563 33.3848 36.563C34.2981 36.563 34.9015 36.933 35.1949 37.673L34.055 38.0209C33.9367 37.7182 33.6969 37.5669 33.3356 37.5669C33.0355 37.5669 32.8855 37.6608 32.8855 37.8486C32.8855 37.9325 32.9195 37.9977 32.9873 38.0441C33.0552 38.0904 33.1866 38.1346 33.3816 38.1766C33.9181 38.2915 34.2992 38.3931 34.5248 38.4814C34.7503 38.5698 34.9387 38.7211 35.0898 38.9354C35.2409 39.1474 35.3165 39.3981 35.3165 39.6875C35.3165 40.1448 35.1325 40.5159 34.7646 40.8008C34.3966 41.0836 33.9137 41.2249 33.3159 41.2249C32.223 41.2249 31.5485 40.7655 31.2922 39.8466Z" fill="#19458E"/>
<path id="Vector_3" d="M31.0163 36.6325V39.6279C31.0163 40.1956 30.8488 40.6042 30.5137 40.8538C30.1808 41.1012 29.7461 41.2249 29.2095 41.2249C28.6445 41.2249 28.1901 41.1056 27.8462 40.8671C27.5046 40.6285 27.3337 40.2397 27.3337 39.7008V36.6325H28.7332V39.5384C28.7332 39.7549 28.7781 39.9128 28.8679 40.0122C28.9599 40.1116 29.1055 40.1613 29.3048 40.1613C29.4712 40.1613 29.607 40.126 29.7121 40.0553C29.8195 39.9824 29.883 39.9007 29.9027 39.8101C29.9246 39.7195 29.9355 39.5428 29.9355 39.28V36.6325H31.0163Z" fill="#19458E"/>
<path id="Vector_4" d="M27.1202 36.6325L25.7174 39.2402V41.1554H24.3804V39.2402L22.8726 36.6325H24.3804L25.1656 38.1203L25.9178 36.6325H27.1202Z" fill="#19458E"/>
<path id="Vector_5" d="M21.2333 40.0454V41.1554H18.0895V36.6325H19.4659V40.0454H21.2333Z" fill="#19458E"/>
<path id="Vector_6" d="M16.2728 41.1554L16.0199 40.264H14.8175L14.5481 41.1554H13.4312L14.8175 36.6325H16.2728L17.6756 41.1554H16.2728ZM15.0508 39.2766H15.7801L15.4154 37.9645L15.0508 39.2766Z" fill="#19458E"/>
</g>
<g id="&#217;&#132;&#217;&#132;&#216;&#170;&#216;&#185;&#217;&#132;&#217;&#138;&#217;&#133; &#217;&#136;&#216;&#167;&#217;&#132;&#216;&#170;&#216;&#175;&#216;&#177;&#217;&#138;&#216;&#168;">
<path id="Vector_7" d="M45.0926 45.9545C45.1632 45.9545 45.2254 45.9491 45.2791 45.9382C45.3344 45.9258 45.3804 45.9034 45.4173 45.8709C45.4541 45.8384 45.4817 45.7942 45.5002 45.7385C45.5186 45.6828 45.5278 45.6108 45.5278 45.5225V42.7889H45.887V45.5388C45.887 45.6549 45.8763 45.7555 45.8548 45.8407C45.8333 45.9258 45.8033 45.9978 45.765 46.0567C45.7281 46.1155 45.6836 46.1643 45.6314 46.203C45.5807 46.2402 45.5247 46.2688 45.4633 46.2889C45.4034 46.3091 45.3397 46.323 45.2722 46.3307C45.2062 46.3385 45.1386 46.3423 45.0696 46.3423H44.7403C44.6866 46.3423 44.6466 46.3222 44.6205 46.282C44.5929 46.2417 44.5791 46.1968 44.5791 46.1473C44.5791 46.0977 44.5929 46.0536 44.6205 46.0149C44.6466 45.9746 44.6866 45.9545 44.7403 45.9545H45.0926Z" fill="#19458E"/>
<path id="Vector_8" d="M44.312 45.3623C44.312 45.466 44.3166 45.555 44.3258 45.6293C44.335 45.7037 44.3542 45.7648 44.3834 45.8128C44.4141 45.8608 44.4578 45.8964 44.5146 45.9197C44.5714 45.9429 44.6466 45.9545 44.7403 45.9545V46.3423H44.6896C44.5407 46.3423 44.4217 46.3183 44.3327 46.2704C44.2437 46.2208 44.1769 46.1496 44.1324 46.0567H44.1232C44.0817 46.1109 44.0349 46.1565 43.9827 46.1937C43.9321 46.2293 43.8791 46.2587 43.8238 46.282C43.7686 46.3036 43.7125 46.3191 43.6557 46.3284C43.6005 46.3377 43.5467 46.3423 43.4946 46.3423H43.1653C43.1115 46.3423 43.0716 46.3222 43.0455 46.282C43.0179 46.2417 43.0041 46.1968 43.0041 46.1473C43.0041 46.0977 43.0179 46.0536 43.0455 46.0149C43.0716 45.9746 43.1115 45.9545 43.1653 45.9545H43.5176C43.5621 45.9545 43.6097 45.9475 43.6603 45.9336C43.7125 45.9197 43.7601 45.8957 43.8031 45.8616C43.8461 45.8275 43.8814 45.7834 43.909 45.7292C43.9382 45.6735 43.9528 45.6046 43.9528 45.5225V42.7889H44.312V45.3623Z" fill="#19458E"/>
<path id="Vector_9" d="M42.737 45.3622C42.737 45.466 42.7416 45.555 42.7508 45.6293C42.76 45.7036 42.7792 45.7648 42.8084 45.8128C42.8391 45.8608 42.8828 45.8964 42.9396 45.9196C42.9964 45.9429 43.0716 45.9545 43.1653 45.9545V46.3423H43.1146C42.9611 46.3423 42.8383 46.3183 42.7462 46.2703C42.6541 46.2208 42.585 46.1496 42.5389 46.0567H42.5297C42.4898 46.1109 42.4445 46.1565 42.3939 46.1937C42.3448 46.2293 42.2933 46.2587 42.2396 46.2819C42.1859 46.3036 42.1314 46.3191 42.0761 46.3284C42.0224 46.3377 41.9702 46.3423 41.9195 46.3423H41.5903C41.5365 46.3423 41.4966 46.3222 41.4705 46.2819C41.4429 46.2417 41.4291 46.1968 41.4291 46.1472C41.4291 46.0977 41.4429 46.0536 41.4705 46.0149C41.4966 45.9746 41.5365 45.9545 41.5903 45.9545H41.9426C41.9871 45.9545 42.0347 45.9475 42.0853 45.9336C42.1375 45.9196 42.1851 45.8956 42.2281 45.8616C42.2711 45.8275 42.3064 45.7834 42.334 45.7292C42.3632 45.6735 42.3778 45.6046 42.3778 45.5225V44.4913H42.737V45.3622ZM42.3824 43.9386H41.9564V43.5182H42.3824V43.9386ZM43.1238 43.9386H42.6978V43.5182H43.1238V43.9386Z" fill="#19458E"/>
<path id="Vector_10" d="M41.588 45.9545V46.3424H41.4452C41.238 46.3424 41.0422 46.3137 40.858 46.2564C40.6754 46.1991 40.5004 46.1171 40.333 46.0102C40.1749 46.1093 39.9915 46.1899 39.7827 46.2518C39.5739 46.3122 39.336 46.3424 39.0689 46.3424H38.8317C38.778 46.3424 38.7381 46.3222 38.712 46.282C38.6843 46.2417 38.6705 46.1968 38.6705 46.1473C38.6705 46.0977 38.6843 46.0536 38.712 46.0149C38.7381 45.9746 38.778 45.9545 38.8317 45.9545H39.0919C39.2884 45.9545 39.4626 45.9382 39.6146 45.9057C39.7681 45.8732 39.9055 45.8299 40.0268 45.7757C39.8641 45.6394 39.7159 45.4908 39.5824 45.3298C39.4504 45.1687 39.3314 45.0015 39.2255 44.8281V44.4263C39.2945 44.4155 39.3728 44.4031 39.4603 44.3891C39.5478 44.3752 39.6399 44.3628 39.7367 44.352C39.8334 44.3396 39.9324 44.3295 40.0337 44.3218C40.1365 44.3125 40.2363 44.3079 40.333 44.3079C40.3929 44.3079 40.4551 44.3102 40.5195 44.3148C40.584 44.3179 40.647 44.3257 40.7084 44.3381C40.7698 44.3504 40.8273 44.3675 40.8811 44.3891C40.9363 44.4108 40.9847 44.4395 41.0261 44.4751C41.0676 44.5091 41.1006 44.5517 41.1251 44.6028C41.1497 44.6524 41.162 44.7112 41.162 44.7793C41.162 44.8382 41.152 44.9071 41.132 44.986C41.1136 45.0634 41.0837 45.1455 41.0422 45.2322C41.0023 45.3189 40.9509 45.4072 40.888 45.497C40.825 45.5868 40.7498 45.6735 40.6623 45.7571C40.9448 45.8887 41.2533 45.9545 41.588 45.9545ZM40.8005 44.8885C40.8005 44.8095 40.7536 44.7538 40.66 44.7213C40.5679 44.6887 40.4428 44.6725 40.2847 44.6725C40.168 44.6725 40.049 44.6787 39.9278 44.6911C39.8065 44.7019 39.6898 44.7135 39.5778 44.7259V44.7515C39.6837 44.9156 39.8004 45.0665 39.9278 45.2043C40.0567 45.3406 40.2018 45.4645 40.363 45.5759C40.4428 45.5125 40.5103 45.4467 40.5656 45.3785C40.6224 45.3104 40.6677 45.2454 40.7015 45.1834C40.7368 45.12 40.7621 45.0627 40.7774 45.0116C40.7928 44.9605 40.8005 44.9194 40.8005 44.8885Z" fill="#19458E"/>
<path id="Vector_11" d="M38.4034 45.3623C38.4034 45.466 38.408 45.555 38.4172 45.6293C38.4264 45.7037 38.4456 45.7648 38.4748 45.8128C38.5055 45.8608 38.5493 45.8964 38.606 45.9197C38.6628 45.9429 38.7381 45.9545 38.8317 45.9545V46.3423H38.781C38.6321 46.3423 38.5132 46.3183 38.4241 46.2704C38.3351 46.2208 38.2683 46.1496 38.2238 46.0567H38.2146C38.1732 46.1109 38.1263 46.1565 38.0741 46.1937C38.0235 46.2293 37.9705 46.2587 37.9153 46.282C37.86 46.3036 37.804 46.3191 37.7472 46.3284C37.6919 46.3377 37.6382 46.3423 37.586 46.3423H37.2567C37.203 46.3423 37.1631 46.3222 37.137 46.282C37.1093 46.2417 37.0955 46.1968 37.0955 46.1473C37.0955 46.0977 37.1093 46.0536 37.137 46.0149C37.1631 45.9746 37.203 45.9545 37.2567 45.9545H37.609C37.6535 45.9545 37.7011 45.9475 37.7518 45.9336C37.804 45.9197 37.8516 45.8957 37.8945 45.8616C37.9375 45.8275 37.9728 45.7834 38.0005 45.7292C38.0296 45.6735 38.0442 45.6046 38.0442 45.5225V42.7889H38.4034V45.3623Z" fill="#19458E"/>
<path id="Vector_12" d="M36.8284 45.3622C36.8284 45.466 36.833 45.555 36.8422 45.6293C36.8514 45.7036 36.8706 45.7648 36.8998 45.8128C36.9305 45.8608 36.9742 45.8964 37.031 45.9196C37.0878 45.9429 37.1631 45.9545 37.2567 45.9545V46.3423H37.206C37.0525 46.3423 36.9297 46.3183 36.8376 46.2703C36.7455 46.2208 36.6764 46.1496 36.6304 46.0567H36.6212C36.5813 46.1109 36.536 46.1565 36.4853 46.1937C36.4362 46.2293 36.3848 46.2587 36.331 46.2819C36.2773 46.3036 36.2228 46.3191 36.1675 46.3284C36.1138 46.3377 36.0616 46.3423 36.011 46.3423H35.6817C35.628 46.3423 35.5881 46.3222 35.562 46.2819C35.5343 46.2417 35.5205 46.1968 35.5205 46.1472C35.5205 46.0977 35.5343 46.0536 35.562 46.0149C35.5881 45.9746 35.628 45.9545 35.6817 45.9545H36.034C36.0785 45.9545 36.1261 45.9475 36.1768 45.9336C36.229 45.9196 36.2765 45.8956 36.3195 45.8616C36.3625 45.8275 36.3978 45.7834 36.4254 45.7292C36.4546 45.6734 36.4692 45.6045 36.4692 45.5225V44.4913H36.8284V45.3622ZM36.285 47.1134H35.859V46.693H36.285V47.1134ZM37.0264 47.1134H36.6004V46.693H37.0264V47.1134Z" fill="#19458E"/>
<path id="Vector_13" d="M35.6794 45.9545V46.3423H35.6287C35.5044 46.3423 35.4023 46.3199 35.3225 46.275C35.2427 46.2301 35.1774 46.1658 35.1268 46.0822H35.1175C35.0592 46.1658 34.9886 46.2308 34.9057 46.2773C34.8228 46.3222 34.7207 46.3447 34.5994 46.3447C34.5242 46.3447 34.4475 46.3369 34.3692 46.3214C34.2924 46.3075 34.2172 46.292 34.1435 46.275C34.0698 46.2564 33.9992 46.2401 33.9317 46.2262C33.8657 46.2107 33.805 46.203 33.7498 46.203C33.63 46.203 33.5441 46.2409 33.4919 46.3168C33.4412 46.3942 33.4159 46.5034 33.4159 46.6443C33.4159 46.7031 33.419 46.7681 33.4251 46.8393C33.4328 46.9121 33.4428 46.9864 33.455 47.0623C33.4689 47.1397 33.4842 47.2156 33.5011 47.2899C33.5195 47.3658 33.5395 47.4362 33.561 47.5013H33.1787C33.1403 47.3418 33.1096 47.1885 33.0866 47.0414C33.0651 46.8959 33.0544 46.7697 33.0544 46.6628C33.0544 46.5514 33.0682 46.4484 33.0958 46.3539C33.1235 46.261 33.1626 46.1798 33.2133 46.1101C33.2639 46.0389 33.3246 45.9816 33.3952 45.9382C33.4673 45.8933 33.5479 45.8639 33.6369 45.85C33.6723 45.675 33.7129 45.5248 33.759 45.3994C33.8066 45.274 33.8565 45.1687 33.9087 45.0835C33.9624 44.9968 34.0169 44.9279 34.0721 44.8768C34.1289 44.8257 34.1834 44.7863 34.2356 44.7584C34.2878 44.7305 34.3362 44.7127 34.3807 44.705C34.4268 44.6957 34.4659 44.691 34.4981 44.691C34.6025 44.691 34.6969 44.7166 34.7814 44.7677C34.8658 44.8172 34.9395 44.8823 35.0024 44.9628C35.0669 45.0417 35.1191 45.1308 35.159 45.2299C35.1989 45.329 35.2273 45.4273 35.2442 45.5248C35.2534 45.5836 35.2634 45.6394 35.2741 45.692C35.2864 45.7431 35.3071 45.7888 35.3363 45.8291C35.3655 45.8678 35.4061 45.8987 35.4583 45.922C35.5121 45.9436 35.5857 45.9545 35.6794 45.9545ZM34.5557 45.9568C34.6064 45.9568 34.6516 45.9522 34.6916 45.9429C34.733 45.9336 34.7683 45.9181 34.7975 45.8964C34.8282 45.8747 34.8512 45.8453 34.8666 45.8082C34.8834 45.771 34.8919 45.7253 34.8919 45.6711C34.8919 45.6138 34.8804 45.5511 34.8573 45.483C34.8343 45.4133 34.8028 45.3483 34.7629 45.2879C34.7246 45.2275 34.6785 45.1772 34.6248 45.137C34.5726 45.0967 34.5166 45.0766 34.4567 45.0766C34.3416 45.0766 34.2418 45.1401 34.1573 45.267C34.0744 45.394 34.0015 45.5914 33.9386 45.8593C33.9893 45.867 34.0407 45.8763 34.0929 45.8871C34.1451 45.898 34.1973 45.9088 34.2494 45.9196C34.3016 45.9305 34.3531 45.9398 34.4037 45.9475C34.4559 45.9537 34.5066 45.9568 34.5557 45.9568Z" fill="#19458E"/>
<path id="Vector_14" d="M29.2666 46.9206C29.4324 46.9887 29.5813 47.036 29.7133 47.0623C29.8469 47.0902 29.9766 47.1041 30.1025 47.1041C30.256 47.1041 30.3795 47.0786 30.4732 47.0275C30.5684 46.9764 30.642 46.9106 30.6942 46.83C30.748 46.7495 30.7848 46.659 30.8048 46.5583C30.8247 46.4577 30.8362 46.357 30.8393 46.2564C30.7119 46.3137 30.5799 46.3423 30.4432 46.3423C30.3419 46.3423 30.2437 46.3268 30.1485 46.2959C30.0549 46.2634 29.972 46.2169 29.8998 46.1565C29.8277 46.0946 29.7693 46.0195 29.7248 45.9312C29.6818 45.843 29.6604 45.7416 29.6604 45.627C29.6604 45.5279 29.6788 45.4242 29.7156 45.3158C29.7525 45.2059 29.8031 45.1052 29.8676 45.0139C29.9336 44.921 30.0111 44.8451 30.1002 44.7863C30.1892 44.7259 30.2859 44.6957 30.3903 44.6957C30.5008 44.6957 30.6014 44.7282 30.6919 44.7932C30.784 44.8583 30.8715 44.9566 30.9544 45.0882C31.0373 45.2198 31.0995 45.3777 31.1409 45.562C31.1824 45.7447 31.2031 45.9382 31.2031 46.1426C31.2031 46.3222 31.1832 46.4933 31.1432 46.6559C31.1033 46.82 31.0396 46.9647 30.9521 47.0902C30.8646 47.2156 30.751 47.3154 30.6113 47.3898C30.4716 47.4641 30.302 47.5012 30.1025 47.5012C29.9628 47.5012 29.8269 47.4865 29.6949 47.4571C29.5629 47.4277 29.4201 47.3774 29.2666 47.3062V46.9206ZM30.8347 45.8801C30.8332 45.8414 30.8263 45.7958 30.814 45.7431C30.8017 45.6889 30.7848 45.6332 30.7633 45.5759C30.7434 45.5171 30.7196 45.4598 30.6919 45.404C30.6643 45.3467 30.6328 45.2957 30.5975 45.2508C30.5638 45.2043 30.5277 45.1671 30.4893 45.1393C30.4509 45.1114 30.411 45.0975 30.3696 45.0975C30.325 45.0975 30.2813 45.1122 30.2383 45.1416C30.1969 45.171 30.1593 45.2089 30.1255 45.2554C30.0917 45.3018 30.0641 45.3545 30.0426 45.4133C30.0226 45.4722 30.0127 45.531 30.0127 45.5898C30.0127 45.6471 30.0257 45.699 30.0518 45.7454C30.0779 45.7903 30.1124 45.8283 30.1554 45.8592C30.1999 45.8902 30.2506 45.9142 30.3074 45.9312C30.3642 45.9483 30.4233 45.9568 30.4847 45.9568C30.5446 45.9568 30.6044 45.9521 30.6643 45.9429C30.7242 45.932 30.781 45.9111 30.8347 45.8801Z" fill="#19458E"/>
<path id="Vector_15" d="M28.4767 42.7889H28.836V46.3098H28.4767V42.7889Z" fill="#19458E"/>
<path id="Vector_16" d="M26.8604 45.9545C26.931 45.9545 26.9931 45.9491 27.0469 45.9382C27.1021 45.9258 27.1482 45.9034 27.185 45.8709C27.2219 45.8384 27.2495 45.7942 27.2679 45.7385C27.2863 45.6828 27.2955 45.6108 27.2955 45.5225V42.7889H27.6548V45.5388C27.6548 45.6549 27.644 45.7555 27.6225 45.8407C27.601 45.9258 27.5711 45.9978 27.5327 46.0567C27.4959 46.1155 27.4514 46.1643 27.3992 46.203C27.3485 46.2402 27.2925 46.2688 27.2311 46.2889C27.1712 46.3091 27.1075 46.323 27.04 46.3307C26.9739 46.3385 26.9064 46.3423 26.8373 46.3423H26.508C26.4543 46.3423 26.4144 46.3222 26.3883 46.282C26.3607 46.2417 26.3469 46.1968 26.3469 46.1473C26.3469 46.0977 26.3607 46.0536 26.3883 46.0149C26.4144 45.9746 26.4543 45.9545 26.508 45.9545H26.8604Z" fill="#19458E"/>
<path id="Vector_17" d="M26.0797 45.3622C26.0797 45.466 26.0844 45.555 26.0936 45.6293C26.1028 45.7036 26.122 45.7648 26.1511 45.8128C26.1818 45.8608 26.2256 45.8964 26.2824 45.9196C26.3392 45.9429 26.4144 45.9545 26.508 45.9545V46.3423H26.4574C26.3039 46.3423 26.1811 46.3183 26.089 46.2703C25.9969 46.2208 25.9278 46.1496 25.8817 46.0567H25.8725C25.8326 46.1109 25.7873 46.1565 25.7367 46.1937C25.6875 46.2293 25.6361 46.2587 25.5824 46.2819C25.5286 46.3036 25.4742 46.3191 25.4189 46.3284C25.3652 46.3377 25.313 46.3423 25.2623 46.3423H24.933C24.8793 46.3423 24.8394 46.3222 24.8133 46.2819C24.7857 46.2417 24.7719 46.1968 24.7719 46.1472C24.7719 46.0977 24.7857 46.0536 24.8133 46.0149C24.8394 45.9746 24.8793 45.9545 24.933 45.9545H25.2853C25.3299 45.9545 25.3774 45.9475 25.4281 45.9336C25.4803 45.9196 25.5279 45.8956 25.5709 45.8616C25.6138 45.8275 25.6492 45.7834 25.6768 45.7292C25.706 45.6735 25.7205 45.6046 25.7205 45.5225V44.4913H26.0797V45.3622ZM25.7251 43.9386H25.2992V43.5182H25.7251V43.9386ZM26.4666 43.9386H26.0406V43.5182H26.4666V43.9386Z" fill="#19458E"/>
<path id="Vector_18" d="M22.7593 45.9173C22.9082 45.9343 23.0464 45.9475 23.1738 45.9568C23.3012 45.9645 23.4087 45.9684 23.4962 45.9684C23.7203 45.9684 23.8807 45.9413 23.9774 45.8871C24.0757 45.8314 24.1248 45.7431 24.1248 45.6223C24.1248 45.5511 24.1141 45.459 24.0926 45.346C24.0711 45.2329 24.0411 45.1083 24.0028 44.972C23.9659 44.8358 23.9229 44.6926 23.8738 44.5424C23.8247 44.3907 23.7725 44.2412 23.7172 44.0941H24.0995C24.1854 44.3527 24.2576 44.5927 24.3159 44.8141C24.3758 45.034 24.428 45.243 24.4725 45.4412C24.4832 45.4907 24.4978 45.5457 24.5162 45.6061C24.5347 45.6649 24.5608 45.7207 24.5945 45.7733C24.6298 45.8244 24.6744 45.8678 24.7281 45.9034C24.7818 45.9374 24.8501 45.9545 24.933 45.9545V46.3423H24.8824C24.8317 46.3423 24.7818 46.3361 24.7327 46.3237C24.6851 46.3113 24.6398 46.292 24.5968 46.2657C24.5539 46.2378 24.5147 46.2022 24.4794 46.1588C24.4456 46.1139 24.4172 46.0597 24.3942 45.9963H24.3827C24.3428 46.0659 24.2914 46.124 24.2284 46.1705C24.167 46.2169 24.0979 46.2548 24.0212 46.2843C23.9444 46.3121 23.8608 46.3315 23.7702 46.3423C23.6812 46.3547 23.5891 46.3609 23.4939 46.3609C23.4048 46.3609 23.3012 46.3563 23.183 46.347C23.0648 46.3377 22.9482 46.3253 22.833 46.3098L22.7593 45.9173Z" fill="#19458E"/>
<path id="Vector_19" d="M20.5994 47.0135C20.7898 47.0739 20.9533 47.1041 21.0899 47.1041C21.2204 47.1041 21.3301 47.0801 21.4192 47.0321C21.5082 46.9856 21.5788 46.9206 21.631 46.837C21.6847 46.7534 21.7231 46.6551 21.7461 46.5421C21.7692 46.429 21.7807 46.3059 21.7807 46.1728C21.7807 46.0567 21.773 45.9436 21.7577 45.8337C21.7438 45.7238 21.7246 45.6162 21.7001 45.5109C21.6771 45.4056 21.6494 45.3026 21.6172 45.202C21.5865 45.0998 21.5543 44.9999 21.5205 44.9024H21.8912C21.9311 45.003 21.9664 45.1083 21.9971 45.2182C22.0278 45.3282 22.0539 45.4389 22.0754 45.5503C22.0969 45.6603 22.113 45.7694 22.1238 45.8778C22.1361 45.9847 22.1422 46.0861 22.1422 46.1821C22.1422 46.3957 22.1161 46.5846 22.0639 46.7488C22.0117 46.9129 21.9388 47.0507 21.8452 47.1622C21.753 47.2736 21.6425 47.358 21.5136 47.4153C21.3862 47.4726 21.2472 47.5012 21.0968 47.5012C21.0185 47.5012 20.9379 47.4927 20.855 47.4757C20.7721 47.4587 20.6869 47.4323 20.5994 47.3967V47.0135Z" fill="#19458E"/>
<path id="Vector_20" d="M18.9807 45.9545C19.0513 45.9545 19.1135 45.9491 19.1672 45.9382C19.2225 45.9258 19.2685 45.9034 19.3054 45.8709C19.3422 45.8383 19.3699 45.7942 19.3883 45.7385C19.4067 45.6827 19.4159 45.6107 19.4159 45.5225V44.4913H19.7751V45.5387C19.7751 45.6549 19.7644 45.7555 19.7429 45.8407C19.7214 45.9258 19.6915 45.9978 19.6531 46.0567C19.6162 46.1155 19.5717 46.1643 19.5195 46.203C19.4689 46.2401 19.4128 46.2688 19.3514 46.2889C19.2916 46.309 19.2279 46.323 19.1603 46.3307C19.0943 46.3385 19.0268 46.3423 18.9577 46.3423H18.6284C18.5747 46.3423 18.5348 46.3222 18.5087 46.2819C18.481 46.2417 18.4672 46.1968 18.4672 46.1472C18.4672 46.0977 18.481 46.0536 18.5087 46.0149C18.5348 45.9746 18.5747 45.9545 18.6284 45.9545H18.9807ZM19.2317 47.1134H18.8057V46.693H19.2317V47.1134ZM19.9731 47.1134H19.5472V46.693H19.9731V47.1134Z" fill="#19458E"/>
<path id="Vector_21" d="M18.1978 44.4913V45.3622C18.1978 45.466 18.2024 45.555 18.2116 45.6293C18.2208 45.7036 18.24 45.7648 18.2692 45.8128C18.2999 45.8608 18.3429 45.8964 18.3981 45.9196C18.4549 45.9429 18.5309 45.9545 18.6261 45.9545V46.3423H18.5754C18.4265 46.3423 18.3091 46.3199 18.2231 46.275C18.1372 46.2301 18.0696 46.1581 18.0205 46.059H18.0113C17.9438 46.1318 17.8609 46.189 17.7626 46.2308C17.6644 46.2711 17.5546 46.3005 17.4333 46.3191C17.3136 46.3392 17.1847 46.3508 17.0465 46.3539C16.9083 46.3586 16.7656 46.3609 16.6182 46.3609C16.4094 46.3609 16.2183 46.3594 16.0449 46.3563C15.8729 46.3532 15.7171 46.3431 15.5774 46.3261C15.4393 46.3106 15.318 46.2858 15.2136 46.2517C15.1092 46.2177 15.0202 46.1689 14.9465 46.1054C14.8482 46.0203 14.7807 45.9189 14.7439 45.8012C14.707 45.6835 14.6886 45.5566 14.6886 45.4203C14.6886 45.3259 14.6955 45.2353 14.7093 45.1486C14.7231 45.0619 14.7385 44.979 14.7554 44.9001H15.11C15.0962 44.9666 15.0823 45.0394 15.0685 45.1184C15.0563 45.1958 15.0501 45.2763 15.0501 45.3599C15.0501 45.4528 15.0616 45.538 15.0847 45.6154C15.1092 45.6913 15.1576 45.7563 15.2297 45.8105C15.2742 45.843 15.3318 45.8701 15.4024 45.8918C15.473 45.9119 15.5644 45.9281 15.6764 45.9405C15.7885 45.9514 15.9243 45.9591 16.084 45.9638C16.2452 45.9669 16.4386 45.9684 16.6643 45.9684C16.8607 45.9684 17.0327 45.9645 17.18 45.9568C17.3274 45.9491 17.4495 45.9297 17.5462 45.8987C17.6444 45.8662 17.7173 45.8182 17.7649 45.7547C17.814 45.6897 17.8386 45.6015 17.8386 45.49V44.4913H18.1978ZM16.6758 47.1134H16.2498V46.693H16.6758V47.1134Z" fill="#19458E"/>
</g>
<g id="Group 2">
<path id="Path 15" d="M29.3755 13.2186C27.5633 14.0596 25.8964 15.188 24.4381 16.5608C23.0325 17.8846 21.8552 19.4352 20.9547 21.1491C20.8383 20.1214 20.9311 19.0805 21.2273 18.0903C21.9797 15.6077 23.8785 14.0753 25.9223 12.4258C27.0094 11.5506 28.1641 10.7645 29.3755 10.0751V13.2186Z" fill="#FBB03B"/>
<path id="Path 16" d="M29.3755 9.01305C27.5633 9.85404 25.8964 10.9824 24.4381 12.3553C23.0325 13.679 21.8552 15.2296 20.9547 16.9435C20.8383 15.9157 20.9311 14.8749 21.2273 13.8846C21.9797 11.402 23.8785 9.86959 25.9223 8.22012C27.0094 7.34489 28.1641 6.55881 29.3755 5.86942V9.01305Z" fill="#FBB03B"/>
<path id="Path 17" d="M11.6265 9.01305C13.4387 9.85404 15.1056 10.9824 16.5638 12.3553C17.9695 13.679 19.1467 15.2296 20.0472 16.9435C20.1636 15.9158 20.0708 14.875 19.7746 13.8847C19.0222 11.4021 17.1234 9.86972 15.0796 8.22024C13.9925 7.34503 12.8378 6.55895 11.6265 5.86954L11.6265 9.01305Z" fill="#FBB03B"/>
<path id="Path 18" d="M11.6265 13.2186C13.4387 14.0596 15.1056 15.188 16.5638 16.5608C17.9695 17.8846 19.1467 19.4352 20.0472 21.1491C20.1636 20.1214 20.0708 19.0806 19.7746 18.0903C19.0222 15.6077 17.1234 14.0753 15.0796 12.4258C13.9925 11.5506 12.8378 10.7645 11.6265 10.0751L11.6265 13.2186Z" fill="#FBB03B"/>
<path id="Path 19" d="M24.1679 6.09225C24.2685 6.44823 24.3929 7.11451 24.0905 7.79025C23.4629 9.19239 21.4913 9.5325 20.3417 9.4831C20.1702 9.47574 17.607 9.33267 16.9589 7.68713C16.7374 7.12472 16.8184 6.58686 16.9051 6.25657C17.4351 6.65866 18.0165 6.98671 18.6336 7.23184C19.2371 7.47193 19.8682 7.63409 20.512 7.71446C21.1718 7.64624 21.8177 7.47802 22.4277 7.21548C23.0657 6.94132 23.6538 6.5617 24.1679 6.09225Z" fill="#F8A61E"/>
<path id="Path 20" d="M19.9925 0L14.4796 3.39865C14.3961 3.55444 14.3643 3.73311 14.3888 3.90848C14.4091 4.04172 14.4611 4.16803 14.5402 4.27669L20.4789 6.49104C20.6704 6.56898 20.8777 6.59891 21.0832 6.57827C21.2886 6.55762 21.4861 6.48702 21.6585 6.37251C22.0654 6.11357 23.8621 5.00899 26.3233 3.48363C26.2617 3.76236 26.2413 4.04871 26.2627 4.33345C26.2898 4.68955 26.3859 5.07394 26.4444 5.06981C26.5209 5.06442 26.5336 4.39528 26.5353 4.3051C26.5427 3.91513 26.5067 3.76921 26.5656 3.48376C26.5981 3.3272 26.649 3.17509 26.7171 3.03062L22.1432 3.28551C22.1532 3.1629 22.1633 3.04028 22.1734 2.91767L26.2101 2.64839C26.4449 2.67871 26.6147 2.59766 26.6263 2.52111C26.6371 2.44939 26.5148 2.34227 26.3234 2.29458L19.9925 0Z" fill="#F8A61E"/>
</g>
</g>
<defs>
<clipPath id="clip0_2266_801">
<rect width="60" height="48" fill="white"/>
</clipPath>
</defs>
</svg>
