<svg width="16" height="16" viewBox="0 0 16 16" fill="none" xmlns="http://www.w3.org/2000/svg">
<path fill-rule="evenodd" clip-rule="evenodd" d="M14.4 8.0001C14.4 11.5347 11.5346 14.4001 7.99998 14.4001C4.46535 14.4001 1.59998 11.5347 1.59998 8.0001C1.59998 4.46548 4.46535 1.6001 7.99998 1.6001C11.5346 1.6001 14.4 4.46548 14.4 8.0001ZM8.79998 11.2001C8.79998 11.6419 8.4418 12.0001 7.99998 12.0001C7.55815 12.0001 7.19998 11.6419 7.19998 11.2001C7.19998 10.7583 7.55815 10.4001 7.99998 10.4001C8.4418 10.4001 8.79998 10.7583 8.79998 11.2001ZM7.99998 4.0001C7.55815 4.0001 7.19998 4.35827 7.19998 4.8001V8.0001C7.19998 8.44192 7.55815 8.8001 7.99998 8.8001C8.4418 8.8001 8.79998 8.44192 8.79998 8.0001V4.8001C8.79998 4.35827 8.4418 4.0001 7.99998 4.0001Z" fill="#FF4C24"/>
</svg>
