<svg width="48" height="48" viewBox="0 0 48 48" fill="none" xmlns="http://www.w3.org/2000/svg">
<g id="Google Logo">
<g id="logo googleg 48dp">
<path id="Shape" fill-rule="evenodd" clip-rule="evenodd" d="M47.04 24.5455C47.04 22.8437 46.8873 21.2073 46.6036 19.6364H24V28.92H36.9164C36.36 31.92 34.6691 34.4619 32.1273 36.1637V42.1855H39.8836C44.4218 38.0073 47.04 31.8546 47.04 24.5455Z" fill="#4285F4"/>
<path id="Shape_2" fill-rule="evenodd" clip-rule="evenodd" d="M23.9999 47.9996C30.4799 47.9996 35.9126 45.8505 39.8835 42.1851L32.1272 36.1632C29.9781 37.6032 27.229 38.4541 23.9999 38.4541C17.749 38.4541 12.4581 34.2323 10.5708 28.5596H2.55261V34.7778C6.5017 42.6214 14.6181 47.9996 23.9999 47.9996Z" fill="#34A853"/>
<path id="Shape_3" fill-rule="evenodd" clip-rule="evenodd" d="M10.5709 28.5601C10.0909 27.1201 9.81818 25.5819 9.81818 24.0001C9.81818 22.4183 10.0909 20.8801 10.5709 19.4401V13.2219H2.55273C0.927273 16.4619 0 20.1274 0 24.0001C0 27.8728 0.927273 31.5383 2.55273 34.7783L10.5709 28.5601Z" fill="#FBBC05"/>
<path id="Shape_4" fill-rule="evenodd" clip-rule="evenodd" d="M23.9999 9.54545C27.5235 9.54545 30.6872 10.7564 33.1744 13.1345L40.0581 6.25091C35.9017 2.37818 30.469 0 23.9999 0C14.6181 0 6.5017 5.37818 2.55261 13.2218L10.5708 19.44C12.4581 13.7673 17.749 9.54545 23.9999 9.54545Z" fill="#EA4335"/>
</g>
</g>
</svg>
