<svg width="6" height="10" viewBox="0 0 6 10" fill="none" xmlns="http://www.w3.org/2000/svg">
<path id="Vector" d="M4.53711 5.00058L0.367188 1.35019C0.248698 1.24993 0.182617 1.12005 0.168945 0.960542C0.155273 0.801036 0.203125 0.657481 0.3125 0.529878C0.421875 0.411387 0.556315 0.347586 0.71582 0.338471C0.875326 0.329356 1.01432 0.374929 1.13281 0.47519L5.79492 4.56308C5.85872 4.61777 5.90885 4.68385 5.94531 4.76132C5.98177 4.8388 6 4.91855 6 5.00058C6 5.08261 5.98177 5.16236 5.94531 5.23984C5.90885 5.31731 5.85872 5.38339 5.79492 5.43808L1.13281 9.52597C1.07812 9.57154 1.0166 9.60572 0.948242 9.62851C0.879883 9.6513 0.813802 9.66269 0.75 9.66269C0.667969 9.66269 0.588216 9.64674 0.510742 9.61484C0.433268 9.58294 0.367188 9.53509 0.3125 9.47128C0.203125 9.34368 0.155273 9.20012 0.168945 9.04062C0.182617 8.88111 0.248698 8.75123 0.367188 8.65097L4.53711 5.00058Z" fill="#090E34"/>
</svg>
