<svg width="32" height="32" viewBox="0 0 32 32" fill="none" xmlns="http://www.w3.org/2000/svg">
<g id="youtube">
<rect width="32" height="32" rx="16" fill="white"/>
<g id="Group">
<path id="Vector" d="M26.9588 10.5043C26.6952 9.5252 25.9232 8.75318 24.944 8.48957C23.1552 8 16 8 16 8C16 8 8.8447 8 7.05588 8.47074C6.09557 8.73436 5.30473 9.5252 5.04111 10.5043C4.57037 12.2932 4.57037 16.0026 4.57037 16.0026C4.57037 16.0026 4.57037 19.7309 5.04111 21.5008C5.30473 22.48 6.07674 23.252 7.05588 23.5156C8.86353 24.0052 16 24.0052 16 24.0052C16 24.0052 23.1552 24.0052 24.944 23.5344C25.9232 23.2708 26.6952 22.4988 26.9588 21.5197C27.4295 19.7309 27.4295 16.0214 27.4295 16.0214C27.4295 16.0214 27.4484 12.2932 26.9588 10.5043Z" fill="#FF0000"/>
<path id="Vector_2" d="M13.7216 19.4297L19.6717 16.0027L13.7216 12.5757V19.4297Z" fill="white"/>
</g>
</g>
</svg>
