<svg width="48" height="48" viewBox="0 0 48 48" fill="none" xmlns="http://www.w3.org/2000/svg">
<path d="M35.3137 11.3137C29.9804 5.98038 27.3137 3.31371 24 3.31371C20.6863 3.31371 18.0196 5.98037 12.6863 11.3137L11.3137 12.6863C5.98038 18.0196 3.31371 20.6863 3.31371 24C3.31371 27.3137 5.98038 29.9804 11.3137 35.3137L12.6863 36.6863C18.0196 42.0196 20.6863 44.6863 24 44.6863C27.3137 44.6863 29.9804 42.0196 35.3137 36.6863L36.6863 35.3137C42.0196 29.9804 44.6863 27.3137 44.6863 24C44.6863 20.6863 42.0196 18.0196 36.6863 12.6863L35.3137 11.3137Z" fill="#F8A61E"/>
<path d="M27.5 17C27.5 17 20.5 21.144 20.5 24C20.5 26.855 27.5 31 27.5 31" stroke="white" stroke-width="1.5" stroke-linecap="round" stroke-linejoin="round"/>
</svg>
