<svg width="48" height="48" viewBox="0 0 48 48" fill="none" xmlns="http://www.w3.org/2000/svg">
<path d="M12.6863 11.3137C18.0196 5.98038 20.6863 3.31371 24 3.31371C27.3137 3.31371 29.9804 5.98037 35.3137 11.3137L36.6863 12.6863C42.0196 18.0196 44.6863 20.6863 44.6863 24C44.6863 27.3137 42.0196 29.9804 36.6863 35.3137L35.3137 36.6863C29.9804 42.0196 27.3137 44.6863 24 44.6863C20.6863 44.6863 18.0196 42.0196 12.6863 36.6863L11.3137 35.3137C5.98038 29.9804 3.31371 27.3137 3.31371 24C3.31371 20.6863 5.98037 18.0196 11.3137 12.6863L12.6863 11.3137Z" fill="#F8A61E"/>
<path d="M20.5 17C20.5 17 27.5 21.144 27.5 24C27.5 26.855 20.5 31 20.5 31" stroke="white" stroke-width="1.5" stroke-linecap="round" stroke-linejoin="round"/>
</svg>
